<mxfile host="Electron" agent="Mozilla/5.0 (Windows NT 10.0; Win64; x64) AppleWebKit/537.36 (KHTML, like Gecko) draw.io/28.2.5 Chrome/138.0.7204.251 Electron/37.6.1 Safari/537.36" version="28.2.5">
  <diagram name="Pagina-1" id="MN7WsSKvXLgIGYer2BLl">
    <mxGraphModel dx="676" dy="473" grid="1" gridSize="10" guides="1" tooltips="1" connect="1" arrows="1" fold="1" page="1" pageScale="1" pageWidth="827" pageHeight="1169" math="1" shadow="0">
      <root>
        <mxCell id="0" />
        <mxCell id="1" parent="0" />
        <mxCell id="k1Dcnds8sTbt5Jc8Jx6L-89" value="" style="group" vertex="1" connectable="0" parent="1">
          <mxGeometry x="230" y="570" width="320" height="153.75" as="geometry" />
        </mxCell>
        <mxCell id="k1Dcnds8sTbt5Jc8Jx6L-24" value="&lt;font style=&quot;font-size: 15px;&quot;&gt;$$ab\cup a:$$&lt;/font&gt;" style="text;html=1;align=center;verticalAlign=middle;whiteSpace=wrap;rounded=0;fontColor=default;" vertex="1" parent="k1Dcnds8sTbt5Jc8Jx6L-89">
          <mxGeometry x="10" y="38.75" width="60" height="30" as="geometry" />
        </mxCell>
        <mxCell id="k1Dcnds8sTbt5Jc8Jx6L-25" value="" style="ellipse;whiteSpace=wrap;html=1;sketch=1;curveFitting=1;jiggle=2;fillColor=none;fontColor=#ffffff;strokeColor=#006EAF;" vertex="1" parent="k1Dcnds8sTbt5Jc8Jx6L-89">
          <mxGeometry x="90" y="73.75" width="20" height="20" as="geometry" />
        </mxCell>
        <mxCell id="k1Dcnds8sTbt5Jc8Jx6L-26" value="" style="curved=1;endArrow=classic;html=1;rounded=0;exitX=1;exitY=0.5;exitDx=0;exitDy=0;entryX=0;entryY=0.5;entryDx=0;entryDy=0;sketch=1;curveFitting=1;jiggle=2;" edge="1" parent="k1Dcnds8sTbt5Jc8Jx6L-89">
          <mxGeometry width="50" height="50" relative="1" as="geometry">
            <mxPoint x="50" y="83.57999999999998" as="sourcePoint" />
            <mxPoint x="90" y="83.57999999999998" as="targetPoint" />
            <Array as="points" />
          </mxGeometry>
        </mxCell>
        <mxCell id="k1Dcnds8sTbt5Jc8Jx6L-27" value="START" style="text;html=1;align=center;verticalAlign=middle;whiteSpace=wrap;rounded=0;fontFamily=Comic Sans MS;" vertex="1" parent="k1Dcnds8sTbt5Jc8Jx6L-89">
          <mxGeometry x="40" y="83.75" width="60" height="30" as="geometry" />
        </mxCell>
        <mxCell id="k1Dcnds8sTbt5Jc8Jx6L-28" value="" style="ellipse;whiteSpace=wrap;html=1;sketch=1;curveFitting=1;jiggle=2;fillColor=none;fontColor=#ffffff;strokeColor=#006EAF;" vertex="1" parent="k1Dcnds8sTbt5Jc8Jx6L-89">
          <mxGeometry x="140" y="113.75" width="20" height="20" as="geometry" />
        </mxCell>
        <mxCell id="k1Dcnds8sTbt5Jc8Jx6L-29" value="" style="ellipse;whiteSpace=wrap;html=1;sketch=1;curveFitting=1;jiggle=2;fillColor=none;fontColor=#ffffff;strokeColor=#006EAF;" vertex="1" parent="k1Dcnds8sTbt5Jc8Jx6L-89">
          <mxGeometry x="140" y="33.75" width="20" height="20" as="geometry" />
        </mxCell>
        <mxCell id="k1Dcnds8sTbt5Jc8Jx6L-30" value="" style="curved=1;endArrow=classic;html=1;rounded=0;exitX=0.5;exitY=0;exitDx=0;exitDy=0;entryX=0;entryY=0.5;entryDx=0;entryDy=0;sketch=1;curveFitting=1;jiggle=2;" edge="1" parent="k1Dcnds8sTbt5Jc8Jx6L-89" source="k1Dcnds8sTbt5Jc8Jx6L-25" target="k1Dcnds8sTbt5Jc8Jx6L-29">
          <mxGeometry width="50" height="50" relative="1" as="geometry">
            <mxPoint x="80" y="43.670000000000016" as="sourcePoint" />
            <mxPoint x="120" y="43.670000000000016" as="targetPoint" />
            <Array as="points">
              <mxPoint x="100" y="43.75" />
            </Array>
          </mxGeometry>
        </mxCell>
        <mxCell id="k1Dcnds8sTbt5Jc8Jx6L-31" value="" style="curved=1;endArrow=classic;html=1;rounded=0;exitX=0.5;exitY=1;exitDx=0;exitDy=0;entryX=0;entryY=0.5;entryDx=0;entryDy=0;sketch=1;curveFitting=1;jiggle=2;" edge="1" parent="k1Dcnds8sTbt5Jc8Jx6L-89" source="k1Dcnds8sTbt5Jc8Jx6L-25" target="k1Dcnds8sTbt5Jc8Jx6L-28">
          <mxGeometry width="50" height="50" relative="1" as="geometry">
            <mxPoint x="100" y="83.75" as="sourcePoint" />
            <mxPoint x="120" y="53.75" as="targetPoint" />
            <Array as="points">
              <mxPoint x="100" y="123.75" />
            </Array>
          </mxGeometry>
        </mxCell>
        <mxCell id="k1Dcnds8sTbt5Jc8Jx6L-32" value="" style="ellipse;whiteSpace=wrap;html=1;sketch=1;curveFitting=1;jiggle=2;fillColor=none;fontColor=#ffffff;strokeColor=#006EAF;" vertex="1" parent="k1Dcnds8sTbt5Jc8Jx6L-89">
          <mxGeometry x="190" y="33.75" width="20" height="20" as="geometry" />
        </mxCell>
        <mxCell id="k1Dcnds8sTbt5Jc8Jx6L-33" value="" style="curved=1;endArrow=classic;html=1;rounded=0;exitX=1;exitY=0.5;exitDx=0;exitDy=0;entryX=0;entryY=0.5;entryDx=0;entryDy=0;sketch=1;curveFitting=1;jiggle=2;" edge="1" parent="k1Dcnds8sTbt5Jc8Jx6L-89" source="k1Dcnds8sTbt5Jc8Jx6L-29" target="k1Dcnds8sTbt5Jc8Jx6L-32">
          <mxGeometry width="50" height="50" relative="1" as="geometry">
            <mxPoint x="140" y="43.56" as="sourcePoint" />
            <mxPoint x="170" y="43.56" as="targetPoint" />
          </mxGeometry>
        </mxCell>
        <mxCell id="k1Dcnds8sTbt5Jc8Jx6L-34" value="&lt;font style=&quot;font-size: 15px;&quot;&gt;$$\mathcal{E}$$&lt;/font&gt;" style="text;html=1;align=center;verticalAlign=middle;whiteSpace=wrap;rounded=0;fontColor=default;" vertex="1" parent="k1Dcnds8sTbt5Jc8Jx6L-89">
          <mxGeometry x="70" y="113.75" width="60" height="30" as="geometry" />
        </mxCell>
        <mxCell id="k1Dcnds8sTbt5Jc8Jx6L-35" value="&lt;font style=&quot;font-size: 15px;&quot;&gt;$$\mathcal{E}$$&lt;/font&gt;" style="text;html=1;align=center;verticalAlign=middle;whiteSpace=wrap;rounded=0;fontColor=default;" vertex="1" parent="k1Dcnds8sTbt5Jc8Jx6L-89">
          <mxGeometry x="70" y="33.75" width="60" height="30" as="geometry" />
        </mxCell>
        <mxCell id="k1Dcnds8sTbt5Jc8Jx6L-36" value="" style="curved=1;endArrow=classic;html=1;rounded=0;exitX=1;exitY=0.5;exitDx=0;exitDy=0;sketch=1;curveFitting=1;jiggle=2;entryX=0;entryY=0.5;entryDx=0;entryDy=0;" edge="1" parent="k1Dcnds8sTbt5Jc8Jx6L-89" source="k1Dcnds8sTbt5Jc8Jx6L-28" target="k1Dcnds8sTbt5Jc8Jx6L-37">
          <mxGeometry width="50" height="50" relative="1" as="geometry">
            <mxPoint x="190" y="113.75" as="sourcePoint" />
            <mxPoint x="170" y="143.75" as="targetPoint" />
            <Array as="points" />
          </mxGeometry>
        </mxCell>
        <mxCell id="k1Dcnds8sTbt5Jc8Jx6L-37" value="" style="ellipse;whiteSpace=wrap;html=1;sketch=1;curveFitting=1;jiggle=2;fillColor=#1ba1e2;fontColor=#ffffff;strokeColor=#006EAF;" vertex="1" parent="k1Dcnds8sTbt5Jc8Jx6L-89">
          <mxGeometry x="190" y="113.75" width="20" height="20" as="geometry" />
        </mxCell>
        <mxCell id="k1Dcnds8sTbt5Jc8Jx6L-38" value="" style="ellipse;whiteSpace=wrap;html=1;sketch=1;curveFitting=1;jiggle=2;fillColor=#1ba1e2;fontColor=#ffffff;strokeColor=#006EAF;" vertex="1" parent="k1Dcnds8sTbt5Jc8Jx6L-89">
          <mxGeometry x="290" y="33.75" width="20" height="20" as="geometry" />
        </mxCell>
        <mxCell id="k1Dcnds8sTbt5Jc8Jx6L-41" value="&lt;font style=&quot;font-size: 15px;&quot;&gt;$$a$$&lt;/font&gt;" style="text;html=1;align=center;verticalAlign=middle;whiteSpace=wrap;rounded=0;fontColor=default;" vertex="1" parent="k1Dcnds8sTbt5Jc8Jx6L-89">
          <mxGeometry x="160" y="123.75" width="30" height="20" as="geometry" />
        </mxCell>
        <mxCell id="k1Dcnds8sTbt5Jc8Jx6L-42" value="&lt;font style=&quot;font-size: 15px;&quot;&gt;$$a$$&lt;/font&gt;" style="text;html=1;align=center;verticalAlign=middle;whiteSpace=wrap;rounded=0;fontColor=default;" vertex="1" parent="k1Dcnds8sTbt5Jc8Jx6L-89">
          <mxGeometry x="160" y="18.75" width="30" height="20" as="geometry" />
        </mxCell>
        <mxCell id="k1Dcnds8sTbt5Jc8Jx6L-44" value="&lt;font style=&quot;font-size: 15px;&quot;&gt;$$\mathcal{b}$$&lt;/font&gt;" style="text;html=1;align=center;verticalAlign=middle;whiteSpace=wrap;rounded=0;fontColor=default;" vertex="1" parent="k1Dcnds8sTbt5Jc8Jx6L-89">
          <mxGeometry x="260" y="18.75" width="30" height="20" as="geometry" />
        </mxCell>
        <mxCell id="k1Dcnds8sTbt5Jc8Jx6L-45" value="" style="ellipse;whiteSpace=wrap;html=1;sketch=1;curveFitting=1;jiggle=2;fillColor=none;fontColor=#ffffff;strokeColor=#006EAF;" vertex="1" parent="k1Dcnds8sTbt5Jc8Jx6L-89">
          <mxGeometry x="240" y="33.75" width="20" height="20" as="geometry" />
        </mxCell>
        <mxCell id="k1Dcnds8sTbt5Jc8Jx6L-46" value="" style="curved=1;endArrow=classic;html=1;rounded=0;exitX=1;exitY=0.5;exitDx=0;exitDy=0;entryX=0;entryY=0.5;entryDx=0;entryDy=0;sketch=1;curveFitting=1;jiggle=2;" edge="1" parent="k1Dcnds8sTbt5Jc8Jx6L-89" source="k1Dcnds8sTbt5Jc8Jx6L-32" target="k1Dcnds8sTbt5Jc8Jx6L-45">
          <mxGeometry width="50" height="50" relative="1" as="geometry">
            <mxPoint x="210" y="63.370000000000005" as="sourcePoint" />
            <mxPoint x="240" y="63.370000000000005" as="targetPoint" />
          </mxGeometry>
        </mxCell>
        <mxCell id="k1Dcnds8sTbt5Jc8Jx6L-47" value="" style="curved=1;endArrow=classic;html=1;rounded=0;exitX=1;exitY=0.5;exitDx=0;exitDy=0;entryX=0;entryY=0.5;entryDx=0;entryDy=0;sketch=1;curveFitting=1;jiggle=2;" edge="1" parent="k1Dcnds8sTbt5Jc8Jx6L-89" source="k1Dcnds8sTbt5Jc8Jx6L-45" target="k1Dcnds8sTbt5Jc8Jx6L-38">
          <mxGeometry width="50" height="50" relative="1" as="geometry">
            <mxPoint x="270" y="83.37" as="sourcePoint" />
            <mxPoint x="300" y="83.37" as="targetPoint" />
          </mxGeometry>
        </mxCell>
        <mxCell id="k1Dcnds8sTbt5Jc8Jx6L-49" value="&lt;font style=&quot;font-size: 15px;&quot;&gt;$$\mathcal{E}$$&lt;/font&gt;" style="text;html=1;align=center;verticalAlign=middle;whiteSpace=wrap;rounded=0;fontColor=default;" vertex="1" parent="k1Dcnds8sTbt5Jc8Jx6L-89">
          <mxGeometry x="200" y="18.75" width="40" height="20" as="geometry" />
        </mxCell>
        <mxCell id="k1Dcnds8sTbt5Jc8Jx6L-87" value="" style="rounded=0;whiteSpace=wrap;html=1;fillColor=none;sketch=1;curveFitting=1;jiggle=2;strokeColor=#FFB570;" vertex="1" parent="k1Dcnds8sTbt5Jc8Jx6L-89">
          <mxGeometry width="320" height="153.75" as="geometry" />
        </mxCell>
        <mxCell id="k1Dcnds8sTbt5Jc8Jx6L-90" value="" style="group" vertex="1" connectable="0" parent="1">
          <mxGeometry x="220" y="400" width="220" height="75" as="geometry" />
        </mxCell>
        <mxCell id="k1Dcnds8sTbt5Jc8Jx6L-3" value="" style="ellipse;whiteSpace=wrap;html=1;sketch=1;curveFitting=1;jiggle=2;fillColor=none;fontColor=#ffffff;strokeColor=#006EAF;" vertex="1" parent="k1Dcnds8sTbt5Jc8Jx6L-90">
          <mxGeometry x="100" y="35" width="20" height="20" as="geometry" />
        </mxCell>
        <mxCell id="k1Dcnds8sTbt5Jc8Jx6L-4" value="" style="ellipse;whiteSpace=wrap;html=1;sketch=1;curveFitting=1;jiggle=2;fillColor=#1ba1e2;fontColor=#ffffff;strokeColor=#006EAF;" vertex="1" parent="k1Dcnds8sTbt5Jc8Jx6L-90">
          <mxGeometry x="180" y="35" width="20" height="20" as="geometry" />
        </mxCell>
        <mxCell id="k1Dcnds8sTbt5Jc8Jx6L-5" value="" style="curved=1;endArrow=classic;html=1;rounded=0;exitX=1;exitY=0;exitDx=0;exitDy=0;entryX=0;entryY=0;entryDx=0;entryDy=0;sketch=1;curveFitting=1;jiggle=2;" edge="1" parent="k1Dcnds8sTbt5Jc8Jx6L-90" source="k1Dcnds8sTbt5Jc8Jx6L-3" target="k1Dcnds8sTbt5Jc8Jx6L-4">
          <mxGeometry width="50" height="50" relative="1" as="geometry">
            <mxPoint x="174" y="111" as="sourcePoint" />
            <mxPoint x="226" y="111" as="targetPoint" />
            <Array as="points">
              <mxPoint x="150" y="15" />
            </Array>
          </mxGeometry>
        </mxCell>
        <mxCell id="k1Dcnds8sTbt5Jc8Jx6L-6" value="" style="curved=1;endArrow=classic;html=1;rounded=0;exitX=1;exitY=0.5;exitDx=0;exitDy=0;entryX=0;entryY=0.5;entryDx=0;entryDy=0;sketch=1;curveFitting=1;jiggle=2;" edge="1" parent="k1Dcnds8sTbt5Jc8Jx6L-90">
          <mxGeometry width="50" height="50" relative="1" as="geometry">
            <mxPoint x="60" y="44.82999999999993" as="sourcePoint" />
            <mxPoint x="100" y="44.82999999999993" as="targetPoint" />
            <Array as="points" />
          </mxGeometry>
        </mxCell>
        <mxCell id="k1Dcnds8sTbt5Jc8Jx6L-7" value="START" style="text;html=1;align=center;verticalAlign=middle;whiteSpace=wrap;rounded=0;fontFamily=Comic Sans MS;" vertex="1" parent="k1Dcnds8sTbt5Jc8Jx6L-90">
          <mxGeometry x="50" y="45" width="60" height="30" as="geometry" />
        </mxCell>
        <mxCell id="k1Dcnds8sTbt5Jc8Jx6L-8" value="&lt;font style=&quot;font-size: 15px;&quot;&gt;$$b:$$&lt;/font&gt;" style="text;html=1;align=center;verticalAlign=middle;whiteSpace=wrap;rounded=0;fontColor=default;" vertex="1" parent="k1Dcnds8sTbt5Jc8Jx6L-90">
          <mxGeometry y="30" width="60" height="30" as="geometry" />
        </mxCell>
        <mxCell id="k1Dcnds8sTbt5Jc8Jx6L-9" value="$$b$$" style="text;html=1;align=center;verticalAlign=middle;whiteSpace=wrap;rounded=0;fontFamily=Comic Sans MS;fontColor=default;" vertex="1" parent="k1Dcnds8sTbt5Jc8Jx6L-90">
          <mxGeometry x="110" width="60" height="30" as="geometry" />
        </mxCell>
        <mxCell id="k1Dcnds8sTbt5Jc8Jx6L-81" value="" style="rounded=0;whiteSpace=wrap;html=1;fillColor=none;sketch=1;curveFitting=1;jiggle=2;strokeColor=#F19C99;" vertex="1" parent="k1Dcnds8sTbt5Jc8Jx6L-90">
          <mxGeometry x="10" width="210" height="75" as="geometry" />
        </mxCell>
        <mxCell id="k1Dcnds8sTbt5Jc8Jx6L-91" value="" style="group" vertex="1" connectable="0" parent="1">
          <mxGeometry x="220" y="305" width="220" height="80" as="geometry" />
        </mxCell>
        <mxCell id="ddl-roebjKmBMkPWHnF6-1" value="" style="ellipse;whiteSpace=wrap;html=1;sketch=1;curveFitting=1;jiggle=2;fillColor=none;fontColor=#ffffff;strokeColor=#006EAF;" parent="k1Dcnds8sTbt5Jc8Jx6L-91" vertex="1">
          <mxGeometry x="100" y="35" width="20" height="20" as="geometry" />
        </mxCell>
        <mxCell id="ddl-roebjKmBMkPWHnF6-2" value="" style="ellipse;whiteSpace=wrap;html=1;sketch=1;curveFitting=1;jiggle=2;fillColor=#1ba1e2;fontColor=#ffffff;strokeColor=#006EAF;" parent="k1Dcnds8sTbt5Jc8Jx6L-91" vertex="1">
          <mxGeometry x="180" y="35" width="20" height="20" as="geometry" />
        </mxCell>
        <mxCell id="ddl-roebjKmBMkPWHnF6-4" value="" style="curved=1;endArrow=classic;html=1;rounded=0;exitX=1;exitY=0;exitDx=0;exitDy=0;entryX=0;entryY=0;entryDx=0;entryDy=0;sketch=1;curveFitting=1;jiggle=2;" parent="k1Dcnds8sTbt5Jc8Jx6L-91" source="ddl-roebjKmBMkPWHnF6-1" target="ddl-roebjKmBMkPWHnF6-2" edge="1">
          <mxGeometry width="50" height="50" relative="1" as="geometry">
            <mxPoint x="174" y="111" as="sourcePoint" />
            <mxPoint x="226" y="111" as="targetPoint" />
            <Array as="points">
              <mxPoint x="150" y="15" />
            </Array>
          </mxGeometry>
        </mxCell>
        <mxCell id="61cGgM1Lmk8JUmtUeZvV-2" value="" style="curved=1;endArrow=classic;html=1;rounded=0;exitX=1;exitY=0.5;exitDx=0;exitDy=0;entryX=0;entryY=0.5;entryDx=0;entryDy=0;sketch=1;curveFitting=1;jiggle=2;" parent="k1Dcnds8sTbt5Jc8Jx6L-91" edge="1">
          <mxGeometry width="50" height="50" relative="1" as="geometry">
            <mxPoint x="60" y="44.829999999999984" as="sourcePoint" />
            <mxPoint x="100" y="44.829999999999984" as="targetPoint" />
            <Array as="points" />
          </mxGeometry>
        </mxCell>
        <mxCell id="61cGgM1Lmk8JUmtUeZvV-3" value="START" style="text;html=1;align=center;verticalAlign=middle;whiteSpace=wrap;rounded=0;fontFamily=Comic Sans MS;" parent="k1Dcnds8sTbt5Jc8Jx6L-91" vertex="1">
          <mxGeometry x="50" y="45" width="60" height="30" as="geometry" />
        </mxCell>
        <mxCell id="k1Dcnds8sTbt5Jc8Jx6L-1" value="&lt;font style=&quot;font-size: 15px;&quot;&gt;$$a:$$&lt;/font&gt;" style="text;html=1;align=center;verticalAlign=middle;whiteSpace=wrap;rounded=0;fontColor=default;" vertex="1" parent="k1Dcnds8sTbt5Jc8Jx6L-91">
          <mxGeometry y="30" width="60" height="30" as="geometry" />
        </mxCell>
        <mxCell id="k1Dcnds8sTbt5Jc8Jx6L-2" value="$$a$$" style="text;html=1;align=center;verticalAlign=middle;whiteSpace=wrap;rounded=0;fontFamily=Comic Sans MS;fontColor=default;" vertex="1" parent="k1Dcnds8sTbt5Jc8Jx6L-91">
          <mxGeometry x="110" width="60" height="30" as="geometry" />
        </mxCell>
        <mxCell id="k1Dcnds8sTbt5Jc8Jx6L-82" value="" style="rounded=0;whiteSpace=wrap;html=1;fillColor=none;sketch=1;curveFitting=1;jiggle=2;strokeColor=#F19C99;" vertex="1" parent="k1Dcnds8sTbt5Jc8Jx6L-91">
          <mxGeometry x="10" y="5" width="210" height="75" as="geometry" />
        </mxCell>
        <mxCell id="k1Dcnds8sTbt5Jc8Jx6L-92" value="" style="group" vertex="1" connectable="0" parent="1">
          <mxGeometry x="230" y="490" width="290" height="65" as="geometry" />
        </mxCell>
        <mxCell id="k1Dcnds8sTbt5Jc8Jx6L-10" value="" style="ellipse;whiteSpace=wrap;html=1;sketch=1;curveFitting=1;jiggle=2;fillColor=none;fontColor=#ffffff;strokeColor=#006EAF;" vertex="1" parent="k1Dcnds8sTbt5Jc8Jx6L-92">
          <mxGeometry x="110" y="25" width="20" height="20" as="geometry" />
        </mxCell>
        <mxCell id="k1Dcnds8sTbt5Jc8Jx6L-12" value="" style="curved=1;endArrow=classic;html=1;rounded=0;exitX=1;exitY=0.5;exitDx=0;exitDy=0;entryX=0;entryY=0.5;entryDx=0;entryDy=0;sketch=1;curveFitting=1;jiggle=2;" edge="1" parent="k1Dcnds8sTbt5Jc8Jx6L-92" source="k1Dcnds8sTbt5Jc8Jx6L-10" target="k1Dcnds8sTbt5Jc8Jx6L-17">
          <mxGeometry width="50" height="50" relative="1" as="geometry">
            <mxPoint x="184" y="101" as="sourcePoint" />
            <mxPoint x="192.92893218813447" y="27.928932188134468" as="targetPoint" />
          </mxGeometry>
        </mxCell>
        <mxCell id="k1Dcnds8sTbt5Jc8Jx6L-13" value="" style="curved=1;endArrow=classic;html=1;rounded=0;exitX=1;exitY=0.5;exitDx=0;exitDy=0;entryX=0;entryY=0.5;entryDx=0;entryDy=0;sketch=1;curveFitting=1;jiggle=2;" edge="1" parent="k1Dcnds8sTbt5Jc8Jx6L-92">
          <mxGeometry width="50" height="50" relative="1" as="geometry">
            <mxPoint x="70" y="34.829999999999984" as="sourcePoint" />
            <mxPoint x="110" y="34.829999999999984" as="targetPoint" />
            <Array as="points" />
          </mxGeometry>
        </mxCell>
        <mxCell id="k1Dcnds8sTbt5Jc8Jx6L-14" value="START" style="text;html=1;align=center;verticalAlign=middle;whiteSpace=wrap;rounded=0;fontFamily=Comic Sans MS;" vertex="1" parent="k1Dcnds8sTbt5Jc8Jx6L-92">
          <mxGeometry x="60" y="35" width="60" height="30" as="geometry" />
        </mxCell>
        <mxCell id="k1Dcnds8sTbt5Jc8Jx6L-15" value="&lt;font style=&quot;font-size: 15px;&quot;&gt;$$\begin{gathered}(ab)\\a\circ b \end{gathered}:$$&lt;/font&gt;" style="text;html=1;align=center;verticalAlign=middle;whiteSpace=wrap;rounded=0;fontColor=default;" vertex="1" parent="k1Dcnds8sTbt5Jc8Jx6L-92">
          <mxGeometry y="20" width="60" height="30" as="geometry" />
        </mxCell>
        <mxCell id="k1Dcnds8sTbt5Jc8Jx6L-16" value="" style="ellipse;whiteSpace=wrap;html=1;sketch=1;curveFitting=1;jiggle=2;fillColor=#1ba1e2;fontColor=#ffffff;strokeColor=#006EAF;" vertex="1" parent="k1Dcnds8sTbt5Jc8Jx6L-92">
          <mxGeometry x="260" y="25" width="20" height="20" as="geometry" />
        </mxCell>
        <mxCell id="k1Dcnds8sTbt5Jc8Jx6L-17" value="" style="ellipse;whiteSpace=wrap;html=1;sketch=1;curveFitting=1;jiggle=2;fillColor=none;fontColor=#ffffff;strokeColor=#006EAF;" vertex="1" parent="k1Dcnds8sTbt5Jc8Jx6L-92">
          <mxGeometry x="160" y="25" width="20" height="20" as="geometry" />
        </mxCell>
        <mxCell id="k1Dcnds8sTbt5Jc8Jx6L-18" value="" style="ellipse;whiteSpace=wrap;html=1;sketch=1;curveFitting=1;jiggle=2;fillColor=none;fontColor=#ffffff;strokeColor=#006EAF;" vertex="1" parent="k1Dcnds8sTbt5Jc8Jx6L-92">
          <mxGeometry x="210" y="25" width="20" height="20" as="geometry" />
        </mxCell>
        <mxCell id="k1Dcnds8sTbt5Jc8Jx6L-19" value="" style="curved=1;endArrow=classic;html=1;rounded=0;exitX=1;exitY=0.5;exitDx=0;exitDy=0;entryX=0;entryY=0.5;entryDx=0;entryDy=0;sketch=1;curveFitting=1;jiggle=2;" edge="1" parent="k1Dcnds8sTbt5Jc8Jx6L-92" source="k1Dcnds8sTbt5Jc8Jx6L-17" target="k1Dcnds8sTbt5Jc8Jx6L-18">
          <mxGeometry width="50" height="50" relative="1" as="geometry">
            <mxPoint x="180" y="25" as="sourcePoint" />
            <mxPoint x="216" y="25" as="targetPoint" />
          </mxGeometry>
        </mxCell>
        <mxCell id="k1Dcnds8sTbt5Jc8Jx6L-23" value="" style="curved=1;endArrow=classic;html=1;rounded=0;entryX=0;entryY=0.5;entryDx=0;entryDy=0;sketch=1;curveFitting=1;jiggle=2;" edge="1" parent="k1Dcnds8sTbt5Jc8Jx6L-92" target="k1Dcnds8sTbt5Jc8Jx6L-16">
          <mxGeometry width="50" height="50" relative="1" as="geometry">
            <mxPoint x="230" y="35" as="sourcePoint" />
            <mxPoint x="260" y="35" as="targetPoint" />
          </mxGeometry>
        </mxCell>
        <mxCell id="k1Dcnds8sTbt5Jc8Jx6L-43" value="&lt;font style=&quot;font-size: 15px;&quot;&gt;$$a$$&lt;/font&gt;" style="text;html=1;align=center;verticalAlign=middle;whiteSpace=wrap;rounded=0;fontColor=default;" vertex="1" parent="k1Dcnds8sTbt5Jc8Jx6L-92">
          <mxGeometry x="130" y="10" width="30" height="20" as="geometry" />
        </mxCell>
        <mxCell id="k1Dcnds8sTbt5Jc8Jx6L-50" value="&lt;font style=&quot;font-size: 15px;&quot;&gt;$$\mathcal{E}$$&lt;/font&gt;" style="text;html=1;align=center;verticalAlign=middle;whiteSpace=wrap;rounded=0;fontColor=default;" vertex="1" parent="k1Dcnds8sTbt5Jc8Jx6L-92">
          <mxGeometry x="175" y="10" width="40" height="20" as="geometry" />
        </mxCell>
        <mxCell id="k1Dcnds8sTbt5Jc8Jx6L-52" value="&lt;font style=&quot;font-size: 15px;&quot;&gt;$$\mathcal{b}$$&lt;/font&gt;" style="text;html=1;align=center;verticalAlign=middle;whiteSpace=wrap;rounded=0;fontColor=default;" vertex="1" parent="k1Dcnds8sTbt5Jc8Jx6L-92">
          <mxGeometry x="230" y="10" width="30" height="20" as="geometry" />
        </mxCell>
        <mxCell id="k1Dcnds8sTbt5Jc8Jx6L-83" value="" style="rounded=0;whiteSpace=wrap;html=1;fillColor=none;sketch=1;curveFitting=1;jiggle=2;strokeColor=#FFB570;" vertex="1" parent="k1Dcnds8sTbt5Jc8Jx6L-92">
          <mxGeometry width="290" height="65" as="geometry" />
        </mxCell>
        <mxCell id="k1Dcnds8sTbt5Jc8Jx6L-53" value="&lt;font style=&quot;font-size: 15px;&quot;&gt;$$(ab\cup a)^{*}:$$&lt;/font&gt;" style="text;html=1;align=center;verticalAlign=middle;whiteSpace=wrap;rounded=0;fontColor=default;" vertex="1" parent="1">
          <mxGeometry x="250" y="796.87" width="60" height="30" as="geometry" />
        </mxCell>
        <mxCell id="k1Dcnds8sTbt5Jc8Jx6L-54" value="" style="ellipse;whiteSpace=wrap;html=1;sketch=1;curveFitting=1;jiggle=2;fillColor=none;fontColor=#ffffff;strokeColor=#006EAF;" vertex="1" parent="1">
          <mxGeometry x="340" y="846.87" width="20" height="20" as="geometry" />
        </mxCell>
        <mxCell id="k1Dcnds8sTbt5Jc8Jx6L-55" value="" style="curved=1;endArrow=classic;html=1;rounded=0;entryX=0;entryY=0.5;entryDx=0;entryDy=0;sketch=1;curveFitting=1;jiggle=2;exitX=1;exitY=0.5;exitDx=0;exitDy=0;" edge="1" parent="1" source="k1Dcnds8sTbt5Jc8Jx6L-76">
          <mxGeometry width="50" height="50" relative="1" as="geometry">
            <mxPoint x="300" y="871.87" as="sourcePoint" />
            <mxPoint x="340" y="856.6999999999999" as="targetPoint" />
            <Array as="points" />
          </mxGeometry>
        </mxCell>
        <mxCell id="k1Dcnds8sTbt5Jc8Jx6L-57" value="" style="ellipse;whiteSpace=wrap;html=1;sketch=1;curveFitting=1;jiggle=2;fillColor=none;fontColor=#ffffff;strokeColor=#006EAF;" vertex="1" parent="1">
          <mxGeometry x="390" y="886.87" width="20" height="20" as="geometry" />
        </mxCell>
        <mxCell id="k1Dcnds8sTbt5Jc8Jx6L-58" value="" style="ellipse;whiteSpace=wrap;html=1;sketch=1;curveFitting=1;jiggle=2;fillColor=none;fontColor=#ffffff;strokeColor=#006EAF;" vertex="1" parent="1">
          <mxGeometry x="390" y="806.87" width="20" height="20" as="geometry" />
        </mxCell>
        <mxCell id="k1Dcnds8sTbt5Jc8Jx6L-59" value="" style="curved=1;endArrow=classic;html=1;rounded=0;exitX=0.5;exitY=0;exitDx=0;exitDy=0;entryX=0;entryY=0.5;entryDx=0;entryDy=0;sketch=1;curveFitting=1;jiggle=2;" edge="1" parent="1" source="k1Dcnds8sTbt5Jc8Jx6L-54" target="k1Dcnds8sTbt5Jc8Jx6L-58">
          <mxGeometry width="50" height="50" relative="1" as="geometry">
            <mxPoint x="330" y="816.7900000000001" as="sourcePoint" />
            <mxPoint x="370" y="816.7900000000001" as="targetPoint" />
            <Array as="points">
              <mxPoint x="350" y="816.87" />
            </Array>
          </mxGeometry>
        </mxCell>
        <mxCell id="k1Dcnds8sTbt5Jc8Jx6L-60" value="" style="curved=1;endArrow=classic;html=1;rounded=0;exitX=0.5;exitY=1;exitDx=0;exitDy=0;entryX=0;entryY=0.5;entryDx=0;entryDy=0;sketch=1;curveFitting=1;jiggle=2;" edge="1" parent="1" source="k1Dcnds8sTbt5Jc8Jx6L-54" target="k1Dcnds8sTbt5Jc8Jx6L-57">
          <mxGeometry width="50" height="50" relative="1" as="geometry">
            <mxPoint x="350" y="856.87" as="sourcePoint" />
            <mxPoint x="370" y="826.87" as="targetPoint" />
            <Array as="points">
              <mxPoint x="350" y="896.87" />
            </Array>
          </mxGeometry>
        </mxCell>
        <mxCell id="k1Dcnds8sTbt5Jc8Jx6L-61" value="" style="ellipse;whiteSpace=wrap;html=1;sketch=1;curveFitting=1;jiggle=2;fillColor=none;fontColor=#ffffff;strokeColor=#006EAF;" vertex="1" parent="1">
          <mxGeometry x="440" y="806.87" width="20" height="20" as="geometry" />
        </mxCell>
        <mxCell id="k1Dcnds8sTbt5Jc8Jx6L-62" value="" style="curved=1;endArrow=classic;html=1;rounded=0;exitX=1;exitY=0.5;exitDx=0;exitDy=0;entryX=0;entryY=0.5;entryDx=0;entryDy=0;sketch=1;curveFitting=1;jiggle=2;" edge="1" parent="1" source="k1Dcnds8sTbt5Jc8Jx6L-58" target="k1Dcnds8sTbt5Jc8Jx6L-61">
          <mxGeometry width="50" height="50" relative="1" as="geometry">
            <mxPoint x="390" y="816.68" as="sourcePoint" />
            <mxPoint x="420" y="816.68" as="targetPoint" />
          </mxGeometry>
        </mxCell>
        <mxCell id="k1Dcnds8sTbt5Jc8Jx6L-63" value="&lt;font style=&quot;font-size: 15px;&quot;&gt;$$\mathcal{E}$$&lt;/font&gt;" style="text;html=1;align=center;verticalAlign=middle;whiteSpace=wrap;rounded=0;fontColor=default;" vertex="1" parent="1">
          <mxGeometry x="320" y="886.87" width="60" height="30" as="geometry" />
        </mxCell>
        <mxCell id="k1Dcnds8sTbt5Jc8Jx6L-64" value="&lt;font style=&quot;font-size: 15px;&quot;&gt;$$\mathcal{E}$$&lt;/font&gt;" style="text;html=1;align=center;verticalAlign=middle;whiteSpace=wrap;rounded=0;fontColor=default;" vertex="1" parent="1">
          <mxGeometry x="320" y="806.87" width="60" height="30" as="geometry" />
        </mxCell>
        <mxCell id="k1Dcnds8sTbt5Jc8Jx6L-65" value="" style="curved=1;endArrow=classic;html=1;rounded=0;exitX=1;exitY=0.5;exitDx=0;exitDy=0;sketch=1;curveFitting=1;jiggle=2;entryX=0;entryY=0.5;entryDx=0;entryDy=0;" edge="1" parent="1" source="k1Dcnds8sTbt5Jc8Jx6L-57" target="k1Dcnds8sTbt5Jc8Jx6L-66">
          <mxGeometry width="50" height="50" relative="1" as="geometry">
            <mxPoint x="440" y="886.87" as="sourcePoint" />
            <mxPoint x="420" y="916.87" as="targetPoint" />
            <Array as="points" />
          </mxGeometry>
        </mxCell>
        <mxCell id="k1Dcnds8sTbt5Jc8Jx6L-66" value="" style="ellipse;whiteSpace=wrap;html=1;sketch=1;curveFitting=1;jiggle=2;fillColor=#1ba1e2;fontColor=#ffffff;strokeColor=#006EAF;" vertex="1" parent="1">
          <mxGeometry x="440" y="886.87" width="20" height="20" as="geometry" />
        </mxCell>
        <mxCell id="k1Dcnds8sTbt5Jc8Jx6L-67" value="" style="ellipse;whiteSpace=wrap;html=1;sketch=1;curveFitting=1;jiggle=2;fillColor=#1ba1e2;fontColor=#ffffff;strokeColor=#006EAF;" vertex="1" parent="1">
          <mxGeometry x="540" y="806.87" width="20" height="20" as="geometry" />
        </mxCell>
        <mxCell id="k1Dcnds8sTbt5Jc8Jx6L-68" value="&lt;font style=&quot;font-size: 15px;&quot;&gt;$$a$$&lt;/font&gt;" style="text;html=1;align=center;verticalAlign=middle;whiteSpace=wrap;rounded=0;fontColor=default;" vertex="1" parent="1">
          <mxGeometry x="410" y="896.87" width="30" height="20" as="geometry" />
        </mxCell>
        <mxCell id="k1Dcnds8sTbt5Jc8Jx6L-69" value="&lt;font style=&quot;font-size: 15px;&quot;&gt;$$a$$&lt;/font&gt;" style="text;html=1;align=center;verticalAlign=middle;whiteSpace=wrap;rounded=0;fontColor=default;" vertex="1" parent="1">
          <mxGeometry x="410" y="791.87" width="30" height="20" as="geometry" />
        </mxCell>
        <mxCell id="k1Dcnds8sTbt5Jc8Jx6L-70" value="&lt;font style=&quot;font-size: 15px;&quot;&gt;$$\mathcal{b}$$&lt;/font&gt;" style="text;html=1;align=center;verticalAlign=middle;whiteSpace=wrap;rounded=0;fontColor=default;" vertex="1" parent="1">
          <mxGeometry x="510" y="791.87" width="30" height="20" as="geometry" />
        </mxCell>
        <mxCell id="k1Dcnds8sTbt5Jc8Jx6L-71" value="" style="ellipse;whiteSpace=wrap;html=1;sketch=1;curveFitting=1;jiggle=2;fillColor=none;fontColor=#ffffff;strokeColor=#006EAF;" vertex="1" parent="1">
          <mxGeometry x="490" y="806.87" width="20" height="20" as="geometry" />
        </mxCell>
        <mxCell id="k1Dcnds8sTbt5Jc8Jx6L-72" value="" style="curved=1;endArrow=classic;html=1;rounded=0;exitX=1;exitY=0.5;exitDx=0;exitDy=0;entryX=0;entryY=0.5;entryDx=0;entryDy=0;sketch=1;curveFitting=1;jiggle=2;" edge="1" parent="1" source="k1Dcnds8sTbt5Jc8Jx6L-61" target="k1Dcnds8sTbt5Jc8Jx6L-71">
          <mxGeometry width="50" height="50" relative="1" as="geometry">
            <mxPoint x="460" y="836.49" as="sourcePoint" />
            <mxPoint x="490" y="836.49" as="targetPoint" />
          </mxGeometry>
        </mxCell>
        <mxCell id="k1Dcnds8sTbt5Jc8Jx6L-73" value="" style="curved=1;endArrow=classic;html=1;rounded=0;exitX=1;exitY=0.5;exitDx=0;exitDy=0;entryX=0;entryY=0.5;entryDx=0;entryDy=0;sketch=1;curveFitting=1;jiggle=2;" edge="1" parent="1" source="k1Dcnds8sTbt5Jc8Jx6L-71" target="k1Dcnds8sTbt5Jc8Jx6L-67">
          <mxGeometry width="50" height="50" relative="1" as="geometry">
            <mxPoint x="520" y="856.49" as="sourcePoint" />
            <mxPoint x="550" y="856.49" as="targetPoint" />
          </mxGeometry>
        </mxCell>
        <mxCell id="k1Dcnds8sTbt5Jc8Jx6L-74" value="&lt;font style=&quot;font-size: 15px;&quot;&gt;$$\mathcal{E}$$&lt;/font&gt;" style="text;html=1;align=center;verticalAlign=middle;whiteSpace=wrap;rounded=0;fontColor=default;" vertex="1" parent="1">
          <mxGeometry x="450" y="791.87" width="40" height="20" as="geometry" />
        </mxCell>
        <mxCell id="k1Dcnds8sTbt5Jc8Jx6L-75" value="" style="curved=1;endArrow=classic;html=1;rounded=0;exitX=0.5;exitY=1;exitDx=0;exitDy=0;sketch=1;curveFitting=1;jiggle=2;entryX=0;entryY=1;entryDx=0;entryDy=0;" edge="1" parent="1" source="k1Dcnds8sTbt5Jc8Jx6L-66" target="k1Dcnds8sTbt5Jc8Jx6L-54">
          <mxGeometry width="50" height="50" relative="1" as="geometry">
            <mxPoint x="420" y="981.87" as="sourcePoint" />
            <mxPoint x="310" y="901.87" as="targetPoint" />
            <Array as="points">
              <mxPoint x="430" y="971.87" />
              <mxPoint x="310" y="941.87" />
            </Array>
          </mxGeometry>
        </mxCell>
        <mxCell id="k1Dcnds8sTbt5Jc8Jx6L-76" value="" style="ellipse;whiteSpace=wrap;html=1;sketch=1;curveFitting=1;jiggle=2;fillColor=#1ba1e2;fontColor=#ffffff;strokeColor=#006EAF;" vertex="1" parent="1">
          <mxGeometry x="280" y="846.87" width="20" height="20" as="geometry" />
        </mxCell>
        <mxCell id="k1Dcnds8sTbt5Jc8Jx6L-77" value="" style="curved=1;endArrow=classic;html=1;rounded=0;exitX=0.5;exitY=0;exitDx=0;exitDy=0;sketch=1;curveFitting=1;jiggle=2;entryX=0;entryY=0;entryDx=0;entryDy=0;" edge="1" parent="1" source="k1Dcnds8sTbt5Jc8Jx6L-67" target="k1Dcnds8sTbt5Jc8Jx6L-54">
          <mxGeometry width="50" height="50" relative="1" as="geometry">
            <mxPoint x="520" y="771.87" as="sourcePoint" />
            <mxPoint x="413" y="728.87" as="targetPoint" />
            <Array as="points">
              <mxPoint x="520" y="741.87" />
              <mxPoint x="300" y="781.87" />
            </Array>
          </mxGeometry>
        </mxCell>
        <mxCell id="k1Dcnds8sTbt5Jc8Jx6L-88" value="" style="rounded=0;whiteSpace=wrap;html=1;fillColor=none;sketch=1;curveFitting=1;jiggle=2;strokeColor=#97D077;" vertex="1" parent="1">
          <mxGeometry x="230" y="739.99" width="340" height="233.75" as="geometry" />
        </mxCell>
        <mxCell id="k1Dcnds8sTbt5Jc8Jx6L-95" value="&lt;font style=&quot;font-size: 15px;&quot;&gt;$$\mathcal{E}$$&lt;/font&gt;" style="text;html=1;align=center;verticalAlign=middle;whiteSpace=wrap;rounded=0;fontColor=default;" vertex="1" parent="1">
          <mxGeometry x="500" y="750" width="40" height="20" as="geometry" />
        </mxCell>
        <mxCell id="k1Dcnds8sTbt5Jc8Jx6L-96" value="&lt;font style=&quot;font-size: 15px;&quot;&gt;$$\mathcal{E}$$&lt;/font&gt;" style="text;html=1;align=center;verticalAlign=middle;whiteSpace=wrap;rounded=0;fontColor=default;" vertex="1" parent="1">
          <mxGeometry x="420" y="940" width="40" height="20" as="geometry" />
        </mxCell>
      </root>
    </mxGraphModel>
  </diagram>
</mxfile>
